<svg width="339.760009765625px" height="137.63999023437498px" xmlns="http://www.w3.org/2000/svg" viewBox="80.1199951171875 6.180004882812511 339.760009765625 137.63999023437498" style="background: rgba(0, 0, 0, 0) none repeat scroll 0% 0%;" preserveAspectRatio="xMidYMid"><defs><linearGradient id="editing-outline-gradient" x1="-0.5" x2="1.5" y1="0.5000000000000002" y2="0.4999999999999998"><stop offset="0" stop-color="#ee4208"></stop><stop offset="1" stop-color="#4139ff"></stop></linearGradient><filter id="editing-outline" x="-100%" y="-100%" width="300%" height="300%"><feMorphology in="SourceGraphic" operator="dilate" radius="3" result="outline"></feMorphology><feComposite operator="out" in="outline" in2="SourceAlpha"></feComposite></filter></defs><g filter="url(#editing-outline)"><g transform="translate(134.4399893283844, 102.375)"><path d="M29.78-48.69L29.78-48.69L29.78-48.69Q47.67-48.69 47.67-36.06L47.67-36.06L47.67-36.06Q47.67-29.13 43.22-24.97L43.22-24.97L43.22-24.97Q38.84-20.80 31.17-20.80L31.17-20.80L31.17-20.80Q27.59-20.80 24.82-22.85L24.82-22.85L24.82-22.85Q23.51-23.72 22.63-24.89L22.63-24.89L22.63-24.89Q27.96-24.89 30.77-28.14L30.77-28.14L30.77-28.14Q33.58-31.39 33.58-37.74L33.58-37.74L33.58-37.74Q33.58-44.09 27.30-44.09L27.30-44.09L25.55-44.09L25.55-44.09Q25.11-44.09 24.75-44.02L24.75-44.02L16.35 0L0.51 0L9.49-47.81L9.49-47.81Q17.30-48.54 21.83-48.62L21.83-48.62L21.83-48.62Q26.35-48.69 29.78-48.69ZM65.55-4.01L65.55-4.01L65.55-4.01Q63.29 1.46 56.06 1.46L56.06 1.46L56.06 1.46Q52.34 1.46 50.00-1.09L50.00-1.09L50.00-1.09Q48.03-3.36 48.03-5.62L48.03-5.62L48.03-5.62Q48.03-11.53 50.73-23.07L50.73-23.07L53.44-37.23L68.25-38.69L63.80-15.62L63.80-15.62Q62.56-10.22 62.56-8.32L62.56-8.32L62.56-8.32Q62.56-4.16 65.55-4.01ZM54.75-47.38L54.75-47.38L54.75-47.38Q54.75-50.22 57.12-51.76L57.12-51.76L57.12-51.76Q59.49-53.29 62.93-53.29L62.93-53.29L62.93-53.29Q66.36-53.29 68.44-51.76L68.44-51.76L68.44-51.76Q70.52-50.22 70.52-47.38L70.52-47.38L70.52-47.38Q70.52-44.53 68.22-43.07L68.22-43.07L68.22-43.07Q65.92-41.61 62.49-41.61L62.49-41.61L62.49-41.61Q59.06-41.61 56.90-43.07L56.90-43.07L56.90-43.07Q54.75-44.53 54.75-47.38ZM107.60-30.37L107.60-30.37L107.60-30.37Q107.60-27.30 105.05-25.40L105.05-25.40L105.05-25.40Q102.49-23.51 98.33-23.51L98.33-23.51L98.33-23.51Q96.58-23.51 95.56-24.02L95.56-24.02L95.56-24.02Q96.36-25.91 96.62-28.29L96.62-28.29L96.62-28.29Q96.87-30.66 96.87-31.32L96.87-31.32L96.87-31.32Q96.87-34.38 94.75-34.38L94.75-34.38L94.75-34.38Q93.29-34.38 91.65-32.56L91.65-32.56L91.65-32.56Q90.01-30.73 88.62-27.89L88.62-27.89L88.62-27.89Q85.56-21.32 85.56-14.67L85.56-14.67L85.56-14.67Q85.56-11.02 86.94-9.38L86.94-9.38L86.94-9.38Q88.33-7.74 91.40-7.74L91.40-7.74L91.40-7.74Q95.63-7.74 98.99-11.24L98.99-11.24L98.99-11.24Q99.94-12.34 100.45-13.58L100.45-13.58L100.45-13.58Q103.22-12.12 103.22-8.10L103.22-8.10L103.22-8.10Q103.22-4.01 98.70-1.31L98.70-1.31L98.70-1.31Q94.02 1.46 86.58 1.46L86.58 1.46L86.58 1.46Q71.76 1.46 71.76-14.23L71.76-14.23L71.76-14.23Q71.76-25.70 78.26-32.27L78.26-32.27L78.26-32.27Q84.53-38.69 96.07-38.69L96.07-38.69L96.07-38.69Q107.60-38.69 107.60-30.37ZM131.40-25.62L131.40-25.62L131.40-25.62Q132.42-28.32 132.42-30.66L132.42-30.66L132.42-30.66Q132.42-34.97 128.92-34.97L128.92-34.97L128.92-34.97Q127.09-34.97 125.60-33.32L125.60-33.32L125.60-33.32Q124.10-31.68 124.10-29.64L124.10-29.64L124.10-29.64Q124.10-28.18 125.27-27.01L125.27-27.01L125.27-27.01Q126.95-25.40 131.25-22.78L131.25-22.78L131.25-22.78Q135.56-20.15 137.20-17.99L137.20-17.99L137.20-17.99Q138.85-15.84 138.85-12.88L138.85-12.88L138.85-12.88Q138.85-9.93 137.42-7.23L137.42-7.23L137.42-7.23Q136.00-4.53 133.44-2.63L133.44-2.63L133.44-2.63Q127.97 1.46 119.21 1.46L119.21 1.46L119.21 1.46Q114.46 1.46 110.81-1.02L110.81-1.02L110.81-1.02Q107.16-3.43 107.16-6.28L107.16-6.28L107.16-6.28Q107.16-9.13 109.24-10.80L109.24-10.80L109.24-10.80Q111.32-12.48 114.39-12.48L114.39-12.48L114.39-12.48Q117.46-12.48 119.35-11.31L119.35-11.31L119.35-11.31Q118.41-8.91 118.41-7.30L118.41-7.30L118.41-7.30Q118.41-2.48 122.49-2.48L122.49-2.48L122.49-2.48Q124.25-2.48 125.41-3.58L125.41-3.58L125.41-3.58Q126.58-4.67 126.58-6.57L126.58-6.57L126.58-6.57Q126.58-10.29 120.30-14.23L120.30-14.23L120.30-14.23Q115.19-17.59 114.03-18.91L114.03-18.91L114.03-18.91Q112.05-21.24 112.05-24.16L112.05-24.16L112.05-24.16Q112.05-27.08 113.44-29.86L113.44-29.86L113.44-29.86Q114.83-32.63 117.38-34.60L117.38-34.60L117.38-34.60Q122.71-38.69 131.98-38.69L131.98-38.69L131.98-38.69Q136.73-38.69 139.54-36.79L139.54-36.79L139.54-36.79Q142.35-34.89 142.35-31.68L142.35-31.68L142.35-31.68Q142.35-28.47 140.42-26.64L140.42-26.64L140.42-26.64Q138.48-24.82 134.98-24.82L134.98-24.82L134.98-24.82Q132.57-24.82 131.40-25.62ZM160.97 1.46L160.97 1.46L160.97 1.46Q144.91 1.46 144.91-13.65L144.91-13.65L144.91-13.65Q144.91-24.38 150.82-31.32L150.82-31.32L150.82-31.32Q157.10-38.69 167.97-38.69L167.97-38.69L167.97-38.69Q175.86-38.69 179.87-35.04L179.87-35.04L179.87-35.04Q183.89-31.39 183.89-23.72L183.89-23.72L183.89-23.72Q183.89-12.04 177.61-5.26L177.61-5.26L177.61-5.26Q171.48 1.46 160.97 1.46ZM162.86-30.29L162.86-30.29L162.86-30.29Q161.99-28.32 161.29-25.37L161.29-25.37L161.29-25.37Q160.60-22.41 159.72-17.74L159.72-17.74L159.72-17.74Q158.85-13.07 158.85-7.30L158.85-7.30L158.85-7.30Q158.85-5.40 159.47-4.16L159.47-4.16L159.47-4.16Q160.09-2.92 161.77-2.92L161.77-2.92L161.77-2.92Q163.45-2.92 164.51-3.72L164.51-3.72L164.51-3.72Q165.56-4.53 166.37-6.42L166.37-6.42L166.37-6.42Q167.83-9.78 169.00-16.02L169.00-16.02L169.00-16.02Q170.16-22.26 170.27-24.97L170.27-24.97L170.27-24.97Q170.38-27.67 170.38-29.67L170.38-29.67L170.38-29.67Q170.38-31.68 169.80-33.00L169.80-33.00L169.80-33.00Q169.21-34.31 167.57-34.31L167.57-34.31L167.57-34.31Q165.93-34.31 164.83-33.29L164.83-33.29L164.83-33.29Q163.74-32.27 162.86-30.29ZM211.63-3.07L211.63-3.07L211.63-3.07Q208.12 1.46 199.44 1.46L199.44 1.46L199.44 1.46Q194.91 1.46 191.63-1.28L191.63-1.28L191.63-1.28Q188.34-4.01 188.34-7.96L188.34-7.96L188.34-7.96Q188.34-10.15 188.56-11.24L188.56-11.24L193.45-37.23L208.27-38.69L202.94-10.51L202.94-10.51Q202.65-8.91 202.65-7.96L202.65-7.96L202.65-7.96Q202.65-3.72 205.20-3.72L205.20-3.72L205.20-3.72Q208.05-3.72 210.09-7.59L210.09-7.59L210.09-7.59Q210.75-8.83 211.04-10.44L211.04-10.44L216.23-37.23L230.61-38.69L225.20-10.22L225.20-10.22Q224.99-9.13 224.99-7.96L224.99-7.96L224.99-7.96Q224.99-6.79 225.64-5.51L225.64-5.51L225.64-5.51Q226.30-4.23 228.42-3.94L228.42-3.94L228.42-3.94Q227.98-2.19 226.45-1.02L226.45-1.02L226.45-1.02Q223.23 1.46 219.77 1.46L219.77 1.46L219.77 1.46Q216.30 1.46 214.25 0.22L214.25 0.22L214.25 0.22Q212.21-1.02 211.63-3.07Z" fill="url(#editing-outline-gradient)"></path></g></g><style>text {
  font-size: 64px;
  font-family: Arial Black;
  dominant-baseline: central;
  text-anchor: middle;
}</style></svg>